<?xml version="1.0" encoding="UTF-8" standalone="no"?>
<!DOCTYPE svg PUBLIC "-//W3C//DTD SVG 1.1//EN"
 "http://www.w3.org/Graphics/SVG/1.1/DTD/svg11.dtd">
<!-- Generated by graphviz version 2.38.0 (20140413.2041)
 -->
<!-- Title: SimpleMTT Pages: 1 -->
<svg width="1499pt" height="392pt"
 viewBox="0.00 0.00 1498.78 392.00" xmlns="http://www.w3.org/2000/svg" xmlns:xlink="http://www.w3.org/1999/xlink">
<g id="graph0" class="graph" transform="scale(1 1) rotate(0) translate(4 388)">
<title>SimpleMTT</title>
<polygon fill="white" stroke="none" points="-4,4 -4,-388 1494.78,-388 1494.78,4 -4,4"/>
<!-- DDL_Feed -->
<g id="node1" class="node"><title>DDL_Feed</title>
<polygon fill="none" stroke="red" points="143.389,-371 69.8234,-353 143.389,-335 216.954,-353 143.389,-371"/>
<text text-anchor="middle" x="143.389" y="-349.3" font-family="Times New Roman,serif" font-size="14.00">DDL_Feed</text>
</g>
<!-- DY_DDL -->
<g id="node3" class="node"><title>DY_DDL</title>
<polygon fill="none" stroke="blue" points="323.777,-268.5 323.777,-383.5 538.777,-383.5 538.777,-268.5 323.777,-268.5"/>
<text text-anchor="middle" x="371.777" y="-322.3" font-family="Times New Roman,serif" font-size="14.00">DY Data Tool</text>
<polyline fill="none" stroke="blue" points="419.777,-268.5 419.777,-383.5 "/>
<text text-anchor="middle" x="479.277" y="-368.3" font-family="Times New Roman,serif" font-size="14.00">#Stream#</text>
<polyline fill="none" stroke="blue" points="419.777,-360.5 538.777,-360.5 "/>
<text text-anchor="middle" x="479.277" y="-345.3" font-family="Times New Roman,serif" font-size="14.00">G</text>
<polyline fill="none" stroke="blue" points="419.777,-337.5 538.777,-337.5 "/>
<text text-anchor="middle" x="479.277" y="-322.3" font-family="Times New Roman,serif" font-size="14.00">Market Consistent</text>
<polyline fill="none" stroke="blue" points="419.777,-314.5 538.777,-314.5 "/>
<text text-anchor="middle" x="479.277" y="-299.3" font-family="Times New Roman,serif" font-size="14.00">#Asset#</text>
<polyline fill="none" stroke="blue" points="419.777,-291.5 538.777,-291.5 "/>
<text text-anchor="middle" x="479.277" y="-276.3" font-family="Times New Roman,serif" font-size="14.00">#SubModel#</text>
</g>
<!-- DDL_Feed&#45;&gt;DY_DDL -->
<g id="edge2" class="edge"><title>DDL_Feed&#45;&gt;DY_DDL</title>
<path fill="none" stroke="black" d="M196.825,-348.048C229.587,-344.954 273.125,-340.842 313.722,-337.008"/>
<polygon fill="black" stroke="black" points="314.069,-340.491 323.696,-336.066 313.411,-333.522 314.069,-340.491"/>
</g>
<!-- Other_Possible_Sources -->
<g id="node2" class="node"><title>Other_Possible_Sources</title>
<polygon fill="none" stroke="red" points="143.389,-317 0.111381,-299 143.389,-281 286.666,-299 143.389,-317"/>
<text text-anchor="middle" x="143.389" y="-295.3" font-family="Times New Roman,serif" font-size="14.00">Other_Possible_Sources</text>
</g>
<!-- Other_Possible_Sources&#45;&gt;DY_DDL -->
<g id="edge1" class="edge"><title>Other_Possible_Sources&#45;&gt;DY_DDL</title>
<path fill="none" stroke="black" d="M225.93,-306.701C253.095,-309.266 283.912,-312.177 313.227,-314.945"/>
<polygon fill="black" stroke="black" points="313.239,-318.462 323.524,-315.918 313.898,-311.493 313.239,-318.462"/>
</g>
<!-- DY_Data -->
<g id="node5" class="node"><title>DY_Data</title>
<polygon fill="none" stroke="green" points="605.777,-268.5 605.777,-383.5 828.777,-383.5 828.777,-268.5 605.777,-268.5"/>
<text text-anchor="middle" x="657.777" y="-322.3" font-family="Times New Roman,serif" font-size="14.00">MarketData.DY</text>
<polyline fill="none" stroke="green" points="709.777,-268.5 709.777,-383.5 "/>
<text text-anchor="middle" x="769.277" y="-368.3" font-family="Times New Roman,serif" font-size="14.00">#Stream#</text>
<polyline fill="none" stroke="green" points="709.777,-360.5 828.777,-360.5 "/>
<text text-anchor="middle" x="769.277" y="-345.3" font-family="Times New Roman,serif" font-size="14.00">G</text>
<polyline fill="none" stroke="green" points="709.777,-337.5 828.777,-337.5 "/>
<text text-anchor="middle" x="769.277" y="-322.3" font-family="Times New Roman,serif" font-size="14.00">Market Consistent</text>
<polyline fill="none" stroke="green" points="709.777,-314.5 828.777,-314.5 "/>
<text text-anchor="middle" x="769.277" y="-299.3" font-family="Times New Roman,serif" font-size="14.00">#Asset#</text>
<polyline fill="none" stroke="green" points="709.777,-291.5 828.777,-291.5 "/>
<text text-anchor="middle" x="769.277" y="-276.3" font-family="Times New Roman,serif" font-size="14.00">#SubModel#</text>
</g>
<!-- DY_DDL&#45;&gt;DY_Data -->
<g id="edge3" class="edge"><title>DY_DDL&#45;&gt;DY_Data</title>
<path fill="none" stroke="black" d="M538.836,-326C557.248,-326 576.508,-326 595.269,-326"/>
<polygon fill="black" stroke="black" points="595.328,-329.5 605.328,-326 595.328,-322.5 595.328,-329.5"/>
</g>
<!-- DY_Calibration -->
<g id="node4" class="node"><title>DY_Calibration</title>
<polygon fill="none" stroke="blue" points="968.777,-134.5 968.777,-249.5 1198.78,-249.5 1198.78,-134.5 968.777,-134.5"/>
<text text-anchor="middle" x="1021.28" y="-188.3" font-family="Times New Roman,serif" font-size="14.00">DY Sorter Tool</text>
<polyline fill="none" stroke="blue" points="1073.78,-134.5 1073.78,-249.5 "/>
<text text-anchor="middle" x="1136.28" y="-234.3" font-family="Times New Roman,serif" font-size="14.00">#Stream#</text>
<polyline fill="none" stroke="blue" points="1073.78,-226.5 1198.78,-226.5 "/>
<text text-anchor="middle" x="1136.28" y="-211.3" font-family="Times New Roman,serif" font-size="14.00">G</text>
<polyline fill="none" stroke="blue" points="1073.78,-203.5 1198.78,-203.5 "/>
<text text-anchor="middle" x="1136.28" y="-188.3" font-family="Times New Roman,serif" font-size="14.00">#Calibration Type#</text>
<polyline fill="none" stroke="blue" points="1073.78,-180.5 1198.78,-180.5 "/>
<text text-anchor="middle" x="1136.28" y="-165.3" font-family="Times New Roman,serif" font-size="14.00">#Asset#</text>
<polyline fill="none" stroke="blue" points="1073.78,-157.5 1198.78,-157.5 "/>
<text text-anchor="middle" x="1136.28" y="-142.3" font-family="Times New Roman,serif" font-size="14.00">#SubModel#</text>
</g>
<!-- OutputDYModel -->
<g id="node8" class="node"><title>OutputDYModel</title>
<polygon fill="none" stroke="green" points="1235.78,-134.5 1235.78,-249.5 1490.78,-249.5 1490.78,-134.5 1235.78,-134.5"/>
<text text-anchor="middle" x="1300.78" y="-188.3" font-family="Times New Roman,serif" font-size="14.00">Assets.EQ.PEA.DY</text>
<polyline fill="none" stroke="green" points="1365.78,-134.5 1365.78,-249.5 "/>
<text text-anchor="middle" x="1428.28" y="-234.3" font-family="Times New Roman,serif" font-size="14.00">#Stream#</text>
<polyline fill="none" stroke="green" points="1365.78,-226.5 1490.78,-226.5 "/>
<text text-anchor="middle" x="1428.28" y="-211.3" font-family="Times New Roman,serif" font-size="14.00">G</text>
<polyline fill="none" stroke="green" points="1365.78,-203.5 1490.78,-203.5 "/>
<text text-anchor="middle" x="1428.28" y="-188.3" font-family="Times New Roman,serif" font-size="14.00">#Calibration Type#</text>
<polyline fill="none" stroke="green" points="1365.78,-180.5 1490.78,-180.5 "/>
<text text-anchor="middle" x="1428.28" y="-165.3" font-family="Times New Roman,serif" font-size="14.00">#Asset#</text>
<polyline fill="none" stroke="green" points="1365.78,-157.5 1490.78,-157.5 "/>
<text text-anchor="middle" x="1428.28" y="-142.3" font-family="Times New Roman,serif" font-size="14.00">#SubModel#</text>
</g>
<!-- DY_Calibration&#45;&gt;OutputDYModel -->
<g id="edge7" class="edge"><title>DY_Calibration&#45;&gt;OutputDYModel</title>
<path fill="none" stroke="black" d="M1198.85,-192C1207.65,-192 1216.58,-192 1225.5,-192"/>
<polygon fill="black" stroke="black" points="1225.57,-195.5 1235.57,-192 1225.57,-188.5 1225.57,-195.5"/>
</g>
<!-- DY_Data&#45;&gt;DY_Calibration -->
<g id="edge4" class="edge"><title>DY_Data&#45;&gt;DY_Calibration</title>
<path fill="none" stroke="black" stroke-dasharray="1,5" d="M829.124,-285.25C870.21,-270.145 917.047,-252.927 959.198,-237.431"/>
<polygon fill="black" stroke="black" points="960.498,-240.682 968.676,-233.947 958.083,-234.112 960.498,-240.682"/>
<text text-anchor="middle" x="913.777" y="-270.8" font-family="Times New Roman,serif" font-size="14.00">&#39;Target Data&#39;</text>
</g>
<!-- Assumptions -->
<g id="node6" class="node"><title>Assumptions</title>
<polygon fill="none" stroke="purple" points="595.777,-134.5 595.777,-249.5 838.777,-249.5 838.777,-134.5 595.777,-134.5"/>
<text text-anchor="middle" x="660.777" y="-188.3" font-family="Times New Roman,serif" font-size="14.00">Assets.EQ.PEA.DY</text>
<polyline fill="none" stroke="purple" points="725.777,-134.5 725.777,-249.5 "/>
<text text-anchor="middle" x="782.277" y="-234.3" font-family="Times New Roman,serif" font-size="14.00">Best_Views</text>
<polyline fill="none" stroke="purple" points="725.777,-226.5 838.777,-226.5 "/>
<text text-anchor="middle" x="782.277" y="-211.3" font-family="Times New Roman,serif" font-size="14.00">G</text>
<polyline fill="none" stroke="purple" points="725.777,-203.5 838.777,-203.5 "/>
<text text-anchor="middle" x="782.277" y="-188.3" font-family="Times New Roman,serif" font-size="14.00">Real World</text>
<polyline fill="none" stroke="purple" points="725.777,-180.5 838.777,-180.5 "/>
<text text-anchor="middle" x="782.277" y="-165.3" font-family="Times New Roman,serif" font-size="14.00">#Asset#</text>
<polyline fill="none" stroke="purple" points="725.777,-157.5 838.777,-157.5 "/>
<text text-anchor="middle" x="782.277" y="-142.3" font-family="Times New Roman,serif" font-size="14.00">FEA_VolTargets</text>
</g>
<!-- Assumptions&#45;&gt;DY_Calibration -->
<g id="edge5" class="edge"><title>Assumptions&#45;&gt;DY_Calibration</title>
<path fill="none" stroke="black" d="M838.891,-192C877.235,-192 919.705,-192 958.316,-192"/>
<polygon fill="black" stroke="black" points="958.568,-195.5 968.568,-192 958.568,-188.5 958.568,-195.5"/>
<text text-anchor="middle" x="913.777" y="-195.8" font-family="Times New Roman,serif" font-size="14.00">&#39;Long Term&#39;</text>
</g>
<!-- ZBound -->
<g id="node7" class="node"><title>ZBound</title>
<polygon fill="none" stroke="purple" points="575.777,-0.5 575.777,-115.5 858.777,-115.5 858.777,-0.5 575.777,-0.5"/>
<text text-anchor="middle" x="660.777" y="-54.3" font-family="Times New Roman,serif" font-size="14.00">Assumptions.PEA.ZBound</text>
<polyline fill="none" stroke="purple" points="745.777,-0.5 745.777,-115.5 "/>
<text text-anchor="middle" x="802.277" y="-100.3" font-family="Times New Roman,serif" font-size="14.00">Best_Views</text>
<polyline fill="none" stroke="purple" points="745.777,-92.5 858.777,-92.5 "/>
<text text-anchor="middle" x="802.277" y="-77.3" font-family="Times New Roman,serif" font-size="14.00">G</text>
<polyline fill="none" stroke="purple" points="745.777,-69.5 858.777,-69.5 "/>
<text text-anchor="middle" x="802.277" y="-54.3" font-family="Times New Roman,serif" font-size="14.00">Real World</text>
<polyline fill="none" stroke="purple" points="745.777,-46.5 858.777,-46.5 "/>
<text text-anchor="middle" x="802.277" y="-31.3" font-family="Times New Roman,serif" font-size="14.00">#Asset#</text>
<polyline fill="none" stroke="purple" points="745.777,-23.5 858.777,-23.5 "/>
<text text-anchor="middle" x="802.277" y="-8.3" font-family="Times New Roman,serif" font-size="14.00">FEA_VolTargets</text>
</g>
<!-- ZBound&#45;&gt;DY_Calibration -->
<g id="edge6" class="edge"><title>ZBound&#45;&gt;DY_Calibration</title>
<path fill="none" stroke="black" d="M858.942,-109.712C891.962,-121.851 926.906,-134.698 959.118,-146.539"/>
<polygon fill="black" stroke="black" points="957.979,-149.85 968.572,-150.015 960.394,-143.28 957.979,-149.85"/>
<text text-anchor="middle" x="913.777" y="-143.8" font-family="Times New Roman,serif" font-size="14.00">&#39;Zero Bound&#39;</text>
</g>
</g>
</svg>
