<?xml version="1.0" encoding="UTF-8" standalone="no"?>
<!DOCTYPE svg PUBLIC "-//W3C//DTD SVG 1.1//EN"
 "http://www.w3.org/Graphics/SVG/1.1/DTD/svg11.dtd">
<!-- Generated by graphviz version 2.38.0 (20140413.2041)
 -->
<!-- Title: SimpleMTT Pages: 1 -->
<svg width="1263pt" height="526pt"
 viewBox="0.00 0.00 1263.00 526.00" xmlns="http://www.w3.org/2000/svg" xmlns:xlink="http://www.w3.org/1999/xlink">
<g id="graph0" class="graph" transform="scale(1 1) rotate(0) translate(4 522)">
<title>SimpleMTT</title>
<polygon fill="white" stroke="none" points="-4,4 -4,-522 1259,-522 1259,4 -4,4"/>
<!-- DY_DDL_A1 -->
<g id="node1" class="node"><title>DY_DDL_A1</title>
<polygon fill="none" stroke="blue" points="0,-402.5 0,-517.5 215,-517.5 215,-402.5 0,-402.5"/>
<text text-anchor="middle" x="48" y="-456.3" font-family="Times New Roman,serif" font-size="14.00">DY Data Tool</text>
<polyline fill="none" stroke="blue" points="96,-402.5 96,-517.5 "/>
<text text-anchor="middle" x="155.5" y="-502.3" font-family="Times New Roman,serif" font-size="14.00">B+H_Market</text>
<polyline fill="none" stroke="blue" points="96,-494.5 215,-494.5 "/>
<text text-anchor="middle" x="155.5" y="-479.3" font-family="Times New Roman,serif" font-size="14.00">G</text>
<polyline fill="none" stroke="blue" points="96,-471.5 215,-471.5 "/>
<text text-anchor="middle" x="155.5" y="-456.3" font-family="Times New Roman,serif" font-size="14.00">Market Consistent</text>
<polyline fill="none" stroke="blue" points="96,-448.5 215,-448.5 "/>
<text text-anchor="middle" x="155.5" y="-433.3" font-family="Times New Roman,serif" font-size="14.00">E_GBP</text>
<polyline fill="none" stroke="blue" points="96,-425.5 215,-425.5 "/>
<text text-anchor="middle" x="155.5" y="-410.3" font-family="Times New Roman,serif" font-size="14.00">NULL</text>
</g>
<!-- DY_Data_A1 -->
<g id="node5" class="node"><title>DY_Data_A1</title>
<polygon fill="none" stroke="green" points="282,-402.5 282,-517.5 505,-517.5 505,-402.5 282,-402.5"/>
<text text-anchor="middle" x="334" y="-456.3" font-family="Times New Roman,serif" font-size="14.00">MarketData.DY</text>
<polyline fill="none" stroke="green" points="386,-402.5 386,-517.5 "/>
<text text-anchor="middle" x="445.5" y="-502.3" font-family="Times New Roman,serif" font-size="14.00">B+H_Market</text>
<polyline fill="none" stroke="green" points="386,-494.5 505,-494.5 "/>
<text text-anchor="middle" x="445.5" y="-479.3" font-family="Times New Roman,serif" font-size="14.00">G</text>
<polyline fill="none" stroke="green" points="386,-471.5 505,-471.5 "/>
<text text-anchor="middle" x="445.5" y="-456.3" font-family="Times New Roman,serif" font-size="14.00">Market Consistent</text>
<polyline fill="none" stroke="green" points="386,-448.5 505,-448.5 "/>
<text text-anchor="middle" x="445.5" y="-433.3" font-family="Times New Roman,serif" font-size="14.00">E_GBP</text>
<polyline fill="none" stroke="green" points="386,-425.5 505,-425.5 "/>
<text text-anchor="middle" x="445.5" y="-410.3" font-family="Times New Roman,serif" font-size="14.00">NULL</text>
</g>
<!-- DY_DDL_A1&#45;&gt;DY_Data_A1 -->
<g id="edge1" class="edge"><title>DY_DDL_A1&#45;&gt;DY_Data_A1</title>
<path fill="none" stroke="black" d="M215.059,-460C233.471,-460 252.731,-460 271.492,-460"/>
<polygon fill="black" stroke="black" points="271.551,-463.5 281.551,-460 271.551,-456.5 271.551,-463.5"/>
</g>
<!-- DY_DDL_A2 -->
<g id="node2" class="node"><title>DY_DDL_A2</title>
<polygon fill="none" stroke="blue" points="0,-0.5 0,-115.5 215,-115.5 215,-0.5 0,-0.5"/>
<text text-anchor="middle" x="48" y="-54.3" font-family="Times New Roman,serif" font-size="14.00">DY Data Tool</text>
<polyline fill="none" stroke="blue" points="96,-0.5 96,-115.5 "/>
<text text-anchor="middle" x="155.5" y="-100.3" font-family="Times New Roman,serif" font-size="14.00">B+H_Market</text>
<polyline fill="none" stroke="blue" points="96,-92.5 215,-92.5 "/>
<text text-anchor="middle" x="155.5" y="-77.3" font-family="Times New Roman,serif" font-size="14.00">G</text>
<polyline fill="none" stroke="blue" points="96,-69.5 215,-69.5 "/>
<text text-anchor="middle" x="155.5" y="-54.3" font-family="Times New Roman,serif" font-size="14.00">Market Consistent</text>
<polyline fill="none" stroke="blue" points="96,-46.5 215,-46.5 "/>
<text text-anchor="middle" x="155.5" y="-31.3" font-family="Times New Roman,serif" font-size="14.00">FTSE100</text>
<polyline fill="none" stroke="blue" points="96,-23.5 215,-23.5 "/>
<text text-anchor="middle" x="155.5" y="-8.3" font-family="Times New Roman,serif" font-size="14.00">NULL</text>
</g>
<!-- DY_Data_A2 -->
<g id="node6" class="node"><title>DY_Data_A2</title>
<polygon fill="none" stroke="green" points="282,-0.5 282,-115.5 505,-115.5 505,-0.5 282,-0.5"/>
<text text-anchor="middle" x="334" y="-54.3" font-family="Times New Roman,serif" font-size="14.00">MarketData.DY</text>
<polyline fill="none" stroke="green" points="386,-0.5 386,-115.5 "/>
<text text-anchor="middle" x="445.5" y="-100.3" font-family="Times New Roman,serif" font-size="14.00">B+H_Market</text>
<polyline fill="none" stroke="green" points="386,-92.5 505,-92.5 "/>
<text text-anchor="middle" x="445.5" y="-77.3" font-family="Times New Roman,serif" font-size="14.00">G</text>
<polyline fill="none" stroke="green" points="386,-69.5 505,-69.5 "/>
<text text-anchor="middle" x="445.5" y="-54.3" font-family="Times New Roman,serif" font-size="14.00">Market Consistent</text>
<polyline fill="none" stroke="green" points="386,-46.5 505,-46.5 "/>
<text text-anchor="middle" x="445.5" y="-31.3" font-family="Times New Roman,serif" font-size="14.00">FTSE100</text>
<polyline fill="none" stroke="green" points="386,-23.5 505,-23.5 "/>
<text text-anchor="middle" x="445.5" y="-8.3" font-family="Times New Roman,serif" font-size="14.00">NULL</text>
</g>
<!-- DY_DDL_A2&#45;&gt;DY_Data_A2 -->
<g id="edge6" class="edge"><title>DY_DDL_A2&#45;&gt;DY_Data_A2</title>
<path fill="none" stroke="black" d="M215.059,-58C233.471,-58 252.731,-58 271.492,-58"/>
<polygon fill="black" stroke="black" points="271.551,-61.5001 281.551,-58 271.551,-54.5001 271.551,-61.5001"/>
</g>
<!-- DY_CalibrationA1 -->
<g id="node3" class="node"><title>DY_CalibrationA1</title>
<polygon fill="none" stroke="blue" points="654,-268.5 654,-383.5 860,-383.5 860,-268.5 654,-268.5"/>
<text text-anchor="middle" x="706.5" y="-322.3" font-family="Times New Roman,serif" font-size="14.00">DY Sorter Tool</text>
<polyline fill="none" stroke="blue" points="759,-268.5 759,-383.5 "/>
<text text-anchor="middle" x="809.5" y="-368.3" font-family="Times New Roman,serif" font-size="14.00">B+H_Standard</text>
<polyline fill="none" stroke="blue" points="759,-360.5 860,-360.5 "/>
<text text-anchor="middle" x="809.5" y="-345.3" font-family="Times New Roman,serif" font-size="14.00">None</text>
<polyline fill="none" stroke="blue" points="759,-337.5 860,-337.5 "/>
<text text-anchor="middle" x="809.5" y="-322.3" font-family="Times New Roman,serif" font-size="14.00">Real World</text>
<polyline fill="none" stroke="blue" points="759,-314.5 860,-314.5 "/>
<text text-anchor="middle" x="809.5" y="-299.3" font-family="Times New Roman,serif" font-size="14.00">E_GBP</text>
<polyline fill="none" stroke="blue" points="759,-291.5 860,-291.5 "/>
<text text-anchor="middle" x="809.5" y="-276.3" font-family="Times New Roman,serif" font-size="14.00">NULL</text>
</g>
<!-- OutputDYModelA1 -->
<g id="node9" class="node"><title>OutputDYModelA1</title>
<polygon fill="none" stroke="green" points="997.5,-268.5 997.5,-383.5 1228.5,-383.5 1228.5,-268.5 997.5,-268.5"/>
<text text-anchor="middle" x="1062.5" y="-322.3" font-family="Times New Roman,serif" font-size="14.00">Assets.EQ.PEA.DY</text>
<polyline fill="none" stroke="green" points="1127.5,-268.5 1127.5,-383.5 "/>
<text text-anchor="middle" x="1178" y="-368.3" font-family="Times New Roman,serif" font-size="14.00">B+H_Standard</text>
<polyline fill="none" stroke="green" points="1127.5,-360.5 1228.5,-360.5 "/>
<text text-anchor="middle" x="1178" y="-345.3" font-family="Times New Roman,serif" font-size="14.00">None</text>
<polyline fill="none" stroke="green" points="1127.5,-337.5 1228.5,-337.5 "/>
<text text-anchor="middle" x="1178" y="-322.3" font-family="Times New Roman,serif" font-size="14.00">Real World</text>
<polyline fill="none" stroke="green" points="1127.5,-314.5 1228.5,-314.5 "/>
<text text-anchor="middle" x="1178" y="-299.3" font-family="Times New Roman,serif" font-size="14.00">E_GBP</text>
<polyline fill="none" stroke="green" points="1127.5,-291.5 1228.5,-291.5 "/>
<text text-anchor="middle" x="1178" y="-276.3" font-family="Times New Roman,serif" font-size="14.00">NULL</text>
</g>
<!-- DY_CalibrationA1&#45;&gt;OutputDYModelA1 -->
<g id="edge5" class="edge"><title>DY_CalibrationA1&#45;&gt;OutputDYModelA1</title>
<path fill="none" stroke="black" d="M860.391,-326C900.007,-326 945.725,-326 987.234,-326"/>
<polygon fill="black" stroke="black" points="987.41,-329.5 997.41,-326 987.41,-322.5 987.41,-329.5"/>
<text text-anchor="middle" x="920" y="-329.8" font-family="Times New Roman,serif" font-size="14.00">&#39;DY Model&#39;</text>
</g>
<!-- DY_CalibrationA2 -->
<g id="node4" class="node"><title>DY_CalibrationA2</title>
<polygon fill="none" stroke="blue" points="645,-134.5 645,-249.5 869,-249.5 869,-134.5 645,-134.5"/>
<text text-anchor="middle" x="697.5" y="-188.3" font-family="Times New Roman,serif" font-size="14.00">DY Sorter Tool</text>
<polyline fill="none" stroke="blue" points="750,-134.5 750,-249.5 "/>
<text text-anchor="middle" x="809.5" y="-234.3" font-family="Times New Roman,serif" font-size="14.00">B+H_Standard</text>
<polyline fill="none" stroke="blue" points="750,-226.5 869,-226.5 "/>
<text text-anchor="middle" x="809.5" y="-211.3" font-family="Times New Roman,serif" font-size="14.00">None</text>
<polyline fill="none" stroke="blue" points="750,-203.5 869,-203.5 "/>
<text text-anchor="middle" x="809.5" y="-188.3" font-family="Times New Roman,serif" font-size="14.00">Market Consistent</text>
<polyline fill="none" stroke="blue" points="750,-180.5 869,-180.5 "/>
<text text-anchor="middle" x="809.5" y="-165.3" font-family="Times New Roman,serif" font-size="14.00">E_GBP</text>
<polyline fill="none" stroke="blue" points="750,-157.5 869,-157.5 "/>
<text text-anchor="middle" x="809.5" y="-142.3" font-family="Times New Roman,serif" font-size="14.00">NULL</text>
</g>
<!-- OutputDYModelA2 -->
<g id="node10" class="node"><title>OutputDYModelA2</title>
<polygon fill="none" stroke="green" points="971,-134.5 971,-249.5 1255,-249.5 1255,-134.5 971,-134.5"/>
<text text-anchor="middle" x="1053.5" y="-188.3" font-family="Times New Roman,serif" font-size="14.00">Assets.EQ.CorrelPEA.DY</text>
<polyline fill="none" stroke="green" points="1136,-134.5 1136,-249.5 "/>
<text text-anchor="middle" x="1195.5" y="-234.3" font-family="Times New Roman,serif" font-size="14.00">B+H_Standard</text>
<polyline fill="none" stroke="green" points="1136,-226.5 1255,-226.5 "/>
<text text-anchor="middle" x="1195.5" y="-211.3" font-family="Times New Roman,serif" font-size="14.00">None</text>
<polyline fill="none" stroke="green" points="1136,-203.5 1255,-203.5 "/>
<text text-anchor="middle" x="1195.5" y="-188.3" font-family="Times New Roman,serif" font-size="14.00">Market Consistent</text>
<polyline fill="none" stroke="green" points="1136,-180.5 1255,-180.5 "/>
<text text-anchor="middle" x="1195.5" y="-165.3" font-family="Times New Roman,serif" font-size="14.00">E_GBP</text>
<polyline fill="none" stroke="green" points="1136,-157.5 1255,-157.5 "/>
<text text-anchor="middle" x="1195.5" y="-142.3" font-family="Times New Roman,serif" font-size="14.00">NULL</text>
</g>
<!-- DY_CalibrationA2&#45;&gt;OutputDYModelA2 -->
<g id="edge10" class="edge"><title>DY_CalibrationA2&#45;&gt;OutputDYModelA2</title>
<path fill="none" stroke="black" d="M869.037,-192C898.002,-192 929.718,-192 960.395,-192"/>
<polygon fill="black" stroke="black" points="960.753,-195.5 970.753,-192 960.753,-188.5 960.753,-195.5"/>
<text text-anchor="middle" x="920" y="-195.8" font-family="Times New Roman,serif" font-size="14.00">&#39;DY Model&#39;</text>
</g>
<!-- DY_Data_A1&#45;&gt;DY_CalibrationA1 -->
<g id="edge2" class="edge"><title>DY_Data_A1&#45;&gt;DY_CalibrationA1</title>
<path fill="none" stroke="black" stroke-dasharray="1,5" d="M505.419,-418.885C549.505,-402.543 600.14,-383.774 644.303,-367.404"/>
<polygon fill="black" stroke="black" points="645.755,-370.598 653.915,-363.841 643.322,-364.035 645.755,-370.598"/>
<text text-anchor="middle" x="590" y="-404.8" font-family="Times New Roman,serif" font-size="14.00">&#39;Target Data&#39;</text>
</g>
<!-- DY_Data_A2&#45;&gt;DY_CalibrationA2 -->
<g id="edge7" class="edge"><title>DY_Data_A2&#45;&gt;DY_CalibrationA2</title>
<path fill="none" stroke="black" stroke-dasharray="1,5" d="M505.419,-99.1151C546.614,-114.385 593.529,-131.776 635.537,-147.347"/>
<polygon fill="black" stroke="black" points="634.387,-150.653 644.98,-150.847 636.82,-144.09 634.387,-150.653"/>
<text text-anchor="middle" x="590" y="-144.8" font-family="Times New Roman,serif" font-size="14.00">&#39;Target Data&#39;</text>
</g>
<!-- Assumptions -->
<g id="node7" class="node"><title>Assumptions</title>
<polygon fill="none" stroke="purple" points="272,-134.5 272,-249.5 515,-249.5 515,-134.5 272,-134.5"/>
<text text-anchor="middle" x="337" y="-188.3" font-family="Times New Roman,serif" font-size="14.00">Assets.EQ.PEA.DY</text>
<polyline fill="none" stroke="purple" points="402,-134.5 402,-249.5 "/>
<text text-anchor="middle" x="458.5" y="-234.3" font-family="Times New Roman,serif" font-size="14.00">Best_Views</text>
<polyline fill="none" stroke="purple" points="402,-226.5 515,-226.5 "/>
<text text-anchor="middle" x="458.5" y="-211.3" font-family="Times New Roman,serif" font-size="14.00">G</text>
<polyline fill="none" stroke="purple" points="402,-203.5 515,-203.5 "/>
<text text-anchor="middle" x="458.5" y="-188.3" font-family="Times New Roman,serif" font-size="14.00">Real World</text>
<polyline fill="none" stroke="purple" points="402,-180.5 515,-180.5 "/>
<text text-anchor="middle" x="458.5" y="-165.3" font-family="Times New Roman,serif" font-size="14.00">E_GBP</text>
<polyline fill="none" stroke="purple" points="402,-157.5 515,-157.5 "/>
<text text-anchor="middle" x="458.5" y="-142.3" font-family="Times New Roman,serif" font-size="14.00">FEA_VolTargets</text>
</g>
<!-- Assumptions&#45;&gt;DY_CalibrationA1 -->
<g id="edge3" class="edge"><title>Assumptions&#45;&gt;DY_CalibrationA1</title>
<path fill="none" stroke="black" d="M515.175,-210.525C552.076,-218.679 592.108,-230.131 627,-246 635.983,-250.086 636.769,-253.557 645,-259 646.907,-260.261 648.837,-261.527 650.786,-262.797"/>
<polygon fill="black" stroke="black" points="649.134,-265.896 659.434,-268.374 652.927,-260.013 649.134,-265.896"/>
<text text-anchor="middle" x="590" y="-249.8" font-family="Times New Roman,serif" font-size="14.00">&#39;Long Term&#39;</text>
</g>
<!-- Assumptions&#45;&gt;DY_CalibrationA2 -->
<g id="edge8" class="edge"><title>Assumptions&#45;&gt;DY_CalibrationA2</title>
<path fill="none" stroke="black" d="M515.126,-192C553.576,-192 596.122,-192 634.625,-192"/>
<polygon fill="black" stroke="black" points="634.845,-195.5 644.845,-192 634.845,-188.5 634.845,-195.5"/>
<text text-anchor="middle" x="590" y="-195.8" font-family="Times New Roman,serif" font-size="14.00">&#39;Long Term&#39;</text>
</g>
<!-- ZBound -->
<g id="node8" class="node"><title>ZBound</title>
<polygon fill="none" stroke="purple" points="252,-268.5 252,-383.5 535,-383.5 535,-268.5 252,-268.5"/>
<text text-anchor="middle" x="337" y="-322.3" font-family="Times New Roman,serif" font-size="14.00">Assumptions.PEA.ZBound</text>
<polyline fill="none" stroke="purple" points="422,-268.5 422,-383.5 "/>
<text text-anchor="middle" x="478.5" y="-368.3" font-family="Times New Roman,serif" font-size="14.00">Best_Views</text>
<polyline fill="none" stroke="purple" points="422,-360.5 535,-360.5 "/>
<text text-anchor="middle" x="478.5" y="-345.3" font-family="Times New Roman,serif" font-size="14.00">G</text>
<polyline fill="none" stroke="purple" points="422,-337.5 535,-337.5 "/>
<text text-anchor="middle" x="478.5" y="-322.3" font-family="Times New Roman,serif" font-size="14.00">Real World</text>
<polyline fill="none" stroke="purple" points="422,-314.5 535,-314.5 "/>
<text text-anchor="middle" x="478.5" y="-299.3" font-family="Times New Roman,serif" font-size="14.00">E_ALL</text>
<polyline fill="none" stroke="purple" points="422,-291.5 535,-291.5 "/>
<text text-anchor="middle" x="478.5" y="-276.3" font-family="Times New Roman,serif" font-size="14.00">FEA_VolTargets</text>
</g>
<!-- ZBound&#45;&gt;DY_CalibrationA1 -->
<g id="edge4" class="edge"><title>ZBound&#45;&gt;DY_CalibrationA1</title>
<path fill="none" stroke="black" d="M535.042,-326C571.059,-326 609.319,-326 643.703,-326"/>
<polygon fill="black" stroke="black" points="643.766,-329.5 653.766,-326 643.766,-322.5 643.766,-329.5"/>
<text text-anchor="middle" x="590" y="-329.8" font-family="Times New Roman,serif" font-size="14.00">&#39;Zero Bound&#39;</text>
</g>
<!-- ZBound&#45;&gt;DY_CalibrationA2 -->
<g id="edge9" class="edge"><title>ZBound&#45;&gt;DY_CalibrationA2</title>
<path fill="none" stroke="black" d="M535.08,-292.036C565.796,-283.144 597.83,-272.715 627,-261 632.511,-258.787 638.092,-256.402 643.683,-253.896"/>
<polygon fill="black" stroke="black" points="645.467,-256.928 653.092,-249.572 642.544,-250.567 645.467,-256.928"/>
<text text-anchor="middle" x="590" y="-288.8" font-family="Times New Roman,serif" font-size="14.00">&#39;Zero Bound&#39;</text>
</g>
</g>
</svg>
