<?xml version="1.0" encoding="UTF-8" standalone="no"?>
<!DOCTYPE svg PUBLIC "-//W3C//DTD SVG 1.1//EN"
 "http://www.w3.org/Graphics/SVG/1.1/DTD/svg11.dtd">
<!-- Generated by graphviz version 2.38.0 (20140413.2041)
 -->
<!-- Title: SimpleMTT Pages: 1 -->
<svg width="1344pt" height="258pt"
 viewBox="0.00 0.00 1343.78 258.00" xmlns="http://www.w3.org/2000/svg" xmlns:xlink="http://www.w3.org/1999/xlink">
<g id="graph0" class="graph" transform="scale(1 1) rotate(0) translate(4 254)">
<title>SimpleMTT</title>
<polygon fill="white" stroke="none" points="-4,4 -4,-254 1339.78,-254 1339.78,4 -4,4"/>
<!-- DDL_Feed -->
<g id="node1" class="node"><title>DDL_Feed</title>
<polygon fill="none" stroke="red" points="143.389,-237 69.8234,-219 143.389,-201 216.954,-219 143.389,-237"/>
<text text-anchor="middle" x="143.389" y="-215.3" font-family="Times New Roman,serif" font-size="14.00">DDL_Feed</text>
</g>
<!-- FX_DDL -->
<g id="node3" class="node"><title>FX_DDL</title>
<polygon fill="none" stroke="blue" points="323.777,-134.5 323.777,-249.5 537.777,-249.5 537.777,-134.5 323.777,-134.5"/>
<text text-anchor="middle" x="371.277" y="-188.3" font-family="Times New Roman,serif" font-size="14.00">FX Data Tool</text>
<polyline fill="none" stroke="blue" points="418.777,-134.5 418.777,-249.5 "/>
<text text-anchor="middle" x="478.277" y="-234.3" font-family="Times New Roman,serif" font-size="14.00">#Stream#</text>
<polyline fill="none" stroke="blue" points="418.777,-226.5 537.777,-226.5 "/>
<text text-anchor="middle" x="478.277" y="-211.3" font-family="Times New Roman,serif" font-size="14.00">G</text>
<polyline fill="none" stroke="blue" points="418.777,-203.5 537.777,-203.5 "/>
<text text-anchor="middle" x="478.277" y="-188.3" font-family="Times New Roman,serif" font-size="14.00">Market Consistent</text>
<polyline fill="none" stroke="blue" points="418.777,-180.5 537.777,-180.5 "/>
<text text-anchor="middle" x="478.277" y="-165.3" font-family="Times New Roman,serif" font-size="14.00">#Economy#</text>
<polyline fill="none" stroke="blue" points="418.777,-157.5 537.777,-157.5 "/>
<text text-anchor="middle" x="478.277" y="-142.3" font-family="Times New Roman,serif" font-size="14.00">#SubModel#</text>
</g>
<!-- DDL_Feed&#45;&gt;FX_DDL -->
<g id="edge2" class="edge"><title>DDL_Feed&#45;&gt;FX_DDL</title>
<path fill="none" stroke="black" d="M196.733,-214.048C229.513,-210.947 273.098,-206.823 313.702,-202.982"/>
<polygon fill="black" stroke="black" points="314.051,-206.464 323.677,-202.038 313.392,-199.495 314.051,-206.464"/>
</g>
<!-- Other_Possible_Sources -->
<g id="node2" class="node"><title>Other_Possible_Sources</title>
<polygon fill="none" stroke="red" points="143.389,-183 0.111381,-165 143.389,-147 286.666,-165 143.389,-183"/>
<text text-anchor="middle" x="143.389" y="-161.3" font-family="Times New Roman,serif" font-size="14.00">Other_Possible_Sources</text>
</g>
<!-- Other_Possible_Sources&#45;&gt;FX_DDL -->
<g id="edge1" class="edge"><title>Other_Possible_Sources&#45;&gt;FX_DDL</title>
<path fill="none" stroke="black" d="M225.788,-172.701C253.052,-175.28 284.003,-178.209 313.408,-180.991"/>
<polygon fill="black" stroke="black" points="313.451,-184.51 323.736,-181.968 314.11,-177.541 313.451,-184.51"/>
</g>
<!-- FX_Data -->
<g id="node5" class="node"><title>FX_Data</title>
<polygon fill="none" stroke="green" points="574.777,-134.5 574.777,-249.5 796.777,-249.5 796.777,-134.5 574.777,-134.5"/>
<text text-anchor="middle" x="626.277" y="-188.3" font-family="Times New Roman,serif" font-size="14.00">MarketData.FX</text>
<polyline fill="none" stroke="green" points="677.777,-134.5 677.777,-249.5 "/>
<text text-anchor="middle" x="737.277" y="-234.3" font-family="Times New Roman,serif" font-size="14.00">#Stream#</text>
<polyline fill="none" stroke="green" points="677.777,-226.5 796.777,-226.5 "/>
<text text-anchor="middle" x="737.277" y="-211.3" font-family="Times New Roman,serif" font-size="14.00">G</text>
<polyline fill="none" stroke="green" points="677.777,-203.5 796.777,-203.5 "/>
<text text-anchor="middle" x="737.277" y="-188.3" font-family="Times New Roman,serif" font-size="14.00">Market Consistent</text>
<polyline fill="none" stroke="green" points="677.777,-180.5 796.777,-180.5 "/>
<text text-anchor="middle" x="737.277" y="-165.3" font-family="Times New Roman,serif" font-size="14.00">#Economy#</text>
<polyline fill="none" stroke="green" points="677.777,-157.5 796.777,-157.5 "/>
<text text-anchor="middle" x="737.277" y="-142.3" font-family="Times New Roman,serif" font-size="14.00">#SubModel#</text>
</g>
<!-- FX_DDL&#45;&gt;FX_Data -->
<g id="edge3" class="edge"><title>FX_DDL&#45;&gt;FX_Data</title>
<path fill="none" stroke="black" d="M537.972,-192C546.622,-192 555.403,-192 564.146,-192"/>
<polygon fill="black" stroke="black" points="564.382,-195.5 574.382,-192 564.382,-188.5 564.382,-195.5"/>
</g>
<!-- FX_Calibration -->
<g id="node4" class="node"><title>FX_Calibration</title>
<polygon fill="none" stroke="blue" points="888.777,-41.5 888.777,-156.5 1111.78,-156.5 1111.78,-41.5 888.777,-41.5"/>
<text text-anchor="middle" x="940.777" y="-95.3" font-family="Times New Roman,serif" font-size="14.00">FX Sorter Tool</text>
<polyline fill="none" stroke="blue" points="992.777,-41.5 992.777,-156.5 "/>
<text text-anchor="middle" x="1052.28" y="-141.3" font-family="Times New Roman,serif" font-size="14.00">#Stream#</text>
<polyline fill="none" stroke="blue" points="992.777,-133.5 1111.78,-133.5 "/>
<text text-anchor="middle" x="1052.28" y="-118.3" font-family="Times New Roman,serif" font-size="14.00">G</text>
<polyline fill="none" stroke="blue" points="992.777,-110.5 1111.78,-110.5 "/>
<text text-anchor="middle" x="1052.28" y="-95.3" font-family="Times New Roman,serif" font-size="14.00">Market Consistent</text>
<polyline fill="none" stroke="blue" points="992.777,-87.5 1111.78,-87.5 "/>
<text text-anchor="middle" x="1052.28" y="-72.3" font-family="Times New Roman,serif" font-size="14.00">#Economy#</text>
<polyline fill="none" stroke="blue" points="992.777,-64.5 1111.78,-64.5 "/>
<text text-anchor="middle" x="1052.28" y="-49.3" font-family="Times New Roman,serif" font-size="14.00">#SubModel#</text>
</g>
<!-- OutputFXModel -->
<g id="node7" class="node"><title>OutputFXModel</title>
<polygon fill="none" stroke="green" points="1148.78,-41.5 1148.78,-156.5 1335.78,-156.5 1335.78,-41.5 1148.78,-41.5"/>
<text text-anchor="middle" x="1182.78" y="-95.3" font-family="Times New Roman,serif" font-size="14.00">Econ.FX</text>
<polyline fill="none" stroke="green" points="1216.78,-41.5 1216.78,-156.5 "/>
<text text-anchor="middle" x="1276.28" y="-141.3" font-family="Times New Roman,serif" font-size="14.00">#Stream#</text>
<polyline fill="none" stroke="green" points="1216.78,-133.5 1335.78,-133.5 "/>
<text text-anchor="middle" x="1276.28" y="-118.3" font-family="Times New Roman,serif" font-size="14.00">G</text>
<polyline fill="none" stroke="green" points="1216.78,-110.5 1335.78,-110.5 "/>
<text text-anchor="middle" x="1276.28" y="-95.3" font-family="Times New Roman,serif" font-size="14.00">Market Consistent</text>
<polyline fill="none" stroke="green" points="1216.78,-87.5 1335.78,-87.5 "/>
<text text-anchor="middle" x="1276.28" y="-72.3" font-family="Times New Roman,serif" font-size="14.00">#Economy#</text>
<polyline fill="none" stroke="green" points="1216.78,-64.5 1335.78,-64.5 "/>
<text text-anchor="middle" x="1276.28" y="-49.3" font-family="Times New Roman,serif" font-size="14.00">#SubModel#</text>
</g>
<!-- FX_Calibration&#45;&gt;OutputFXModel -->
<g id="edge6" class="edge"><title>FX_Calibration&#45;&gt;OutputFXModel</title>
<path fill="none" stroke="black" d="M1111.79,-99C1120.64,-99 1129.55,-99 1138.33,-99"/>
<polygon fill="black" stroke="black" points="1138.58,-102.5 1148.58,-99 1138.58,-95.5001 1138.58,-102.5"/>
</g>
<!-- FX_Data&#45;&gt;FX_Calibration -->
<g id="edge4" class="edge"><title>FX_Data&#45;&gt;FX_Calibration</title>
<path fill="none" stroke="black" stroke-dasharray="1,5" d="M796.953,-159.212C823.402,-151.34 851.786,-142.893 878.68,-134.89"/>
<polygon fill="black" stroke="black" points="879.929,-138.17 888.515,-131.963 877.932,-131.461 879.929,-138.17"/>
</g>
<!-- Assumptions -->
<g id="node6" class="node"><title>Assumptions</title>
<polygon fill="none" stroke="purple" points="595.277,-0.5 595.277,-115.5 776.277,-115.5 776.277,-0.5 595.277,-0.5"/>
<text text-anchor="middle" x="629.277" y="-54.3" font-family="Times New Roman,serif" font-size="14.00">Econ.FX</text>
<polyline fill="none" stroke="purple" points="663.277,-0.5 663.277,-115.5 "/>
<text text-anchor="middle" x="719.777" y="-100.3" font-family="Times New Roman,serif" font-size="14.00">B+H_Standard</text>
<polyline fill="none" stroke="purple" points="663.277,-92.5 776.277,-92.5 "/>
<text text-anchor="middle" x="719.777" y="-77.3" font-family="Times New Roman,serif" font-size="14.00">G</text>
<polyline fill="none" stroke="purple" points="663.277,-69.5 776.277,-69.5 "/>
<text text-anchor="middle" x="719.777" y="-54.3" font-family="Times New Roman,serif" font-size="14.00">Real World</text>
<polyline fill="none" stroke="purple" points="663.277,-46.5 776.277,-46.5 "/>
<text text-anchor="middle" x="719.777" y="-31.3" font-family="Times New Roman,serif" font-size="14.00">ALL</text>
<polyline fill="none" stroke="purple" points="663.277,-23.5 776.277,-23.5 "/>
<text text-anchor="middle" x="719.777" y="-8.3" font-family="Times New Roman,serif" font-size="14.00">FEA_VolTargets</text>
</g>
<!-- Assumptions&#45;&gt;FX_Calibration -->
<g id="edge5" class="edge"><title>Assumptions&#45;&gt;FX_Calibration</title>
<path fill="none" stroke="black" d="M776.327,-69.749C808.173,-73.9271 844.569,-78.7024 878.59,-83.1659"/>
<polygon fill="black" stroke="black" points="878.219,-86.6471 888.589,-84.4778 879.13,-79.7066 878.219,-86.6471"/>
<text text-anchor="middle" x="842.777" y="-83.8" font-family="Times New Roman,serif" font-size="14.00">&#39;Volatility&#39;</text>
</g>
</g>
</svg>
