<?xml version="1.0" encoding="UTF-8" standalone="no"?>
<!DOCTYPE svg PUBLIC "-//W3C//DTD SVG 1.1//EN"
 "http://www.w3.org/Graphics/SVG/1.1/DTD/svg11.dtd">
<!-- Generated by graphviz version 2.38.0 (20140413.2041)
 -->
<!-- Title: SimpleMTT Pages: 1 -->
<svg width="1204pt" height="258pt"
 viewBox="0.00 0.00 1204.07 258.00" xmlns="http://www.w3.org/2000/svg" xmlns:xlink="http://www.w3.org/1999/xlink">
<g id="graph0" class="graph" transform="scale(1 1) rotate(0) translate(4 254)">
<title>SimpleMTT</title>
<polygon fill="white" stroke="none" points="-4,4 -4,-254 1200.07,-254 1200.07,4 -4,4"/>
<!-- DDL_Feed -->
<g id="node1" class="node"><title>DDL_Feed</title>
<polygon fill="none" stroke="red" points="73.5326,-210 -0.0325951,-192 73.5326,-174 147.098,-192 73.5326,-210"/>
<text text-anchor="middle" x="73.5326" y="-188.3" font-family="Times New Roman,serif" font-size="14.00">DDL_Feed</text>
</g>
<!-- FX_DDL -->
<g id="node2" class="node"><title>FX_DDL</title>
<polygon fill="none" stroke="blue" points="184.065,-134.5 184.065,-249.5 398.065,-249.5 398.065,-134.5 184.065,-134.5"/>
<text text-anchor="middle" x="231.565" y="-188.3" font-family="Times New Roman,serif" font-size="14.00">FX Data Tool</text>
<polyline fill="none" stroke="blue" points="279.065,-134.5 279.065,-249.5 "/>
<text text-anchor="middle" x="338.565" y="-234.3" font-family="Times New Roman,serif" font-size="14.00">ThomsonReuters</text>
<polyline fill="none" stroke="blue" points="279.065,-226.5 398.065,-226.5 "/>
<text text-anchor="middle" x="338.565" y="-211.3" font-family="Times New Roman,serif" font-size="14.00">G</text>
<polyline fill="none" stroke="blue" points="279.065,-203.5 398.065,-203.5 "/>
<text text-anchor="middle" x="338.565" y="-188.3" font-family="Times New Roman,serif" font-size="14.00">Market Consistent</text>
<polyline fill="none" stroke="blue" points="279.065,-180.5 398.065,-180.5 "/>
<text text-anchor="middle" x="338.565" y="-165.3" font-family="Times New Roman,serif" font-size="14.00">#Economy#</text>
<polyline fill="none" stroke="blue" points="279.065,-157.5 398.065,-157.5 "/>
<text text-anchor="middle" x="338.565" y="-142.3" font-family="Times New Roman,serif" font-size="14.00">#SubModel#</text>
</g>
<!-- DDL_Feed&#45;&gt;FX_DDL -->
<g id="edge1" class="edge"><title>DDL_Feed&#45;&gt;FX_DDL</title>
<path fill="none" stroke="black" d="M147.202,-192C155.815,-192 164.763,-192 173.792,-192"/>
<polygon fill="black" stroke="black" points="174.006,-195.5 184.006,-192 174.006,-188.5 174.006,-195.5"/>
</g>
<!-- FX_Data -->
<g id="node4" class="node"><title>FX_Data</title>
<polygon fill="none" stroke="green" points="435.065,-134.5 435.065,-249.5 657.065,-249.5 657.065,-134.5 435.065,-134.5"/>
<text text-anchor="middle" x="486.565" y="-188.3" font-family="Times New Roman,serif" font-size="14.00">MarketData.FX</text>
<polyline fill="none" stroke="green" points="538.065,-134.5 538.065,-249.5 "/>
<text text-anchor="middle" x="597.565" y="-234.3" font-family="Times New Roman,serif" font-size="14.00">ThomsonReuters</text>
<polyline fill="none" stroke="green" points="538.065,-226.5 657.065,-226.5 "/>
<text text-anchor="middle" x="597.565" y="-211.3" font-family="Times New Roman,serif" font-size="14.00">G</text>
<polyline fill="none" stroke="green" points="538.065,-203.5 657.065,-203.5 "/>
<text text-anchor="middle" x="597.565" y="-188.3" font-family="Times New Roman,serif" font-size="14.00">Market Consistent</text>
<polyline fill="none" stroke="green" points="538.065,-180.5 657.065,-180.5 "/>
<text text-anchor="middle" x="597.565" y="-165.3" font-family="Times New Roman,serif" font-size="14.00">#Economy#</text>
<polyline fill="none" stroke="green" points="538.065,-157.5 657.065,-157.5 "/>
<text text-anchor="middle" x="597.565" y="-142.3" font-family="Times New Roman,serif" font-size="14.00">#SubModel#</text>
</g>
<!-- FX_DDL&#45;&gt;FX_Data -->
<g id="edge2" class="edge"><title>FX_DDL&#45;&gt;FX_Data</title>
<path fill="none" stroke="black" d="M398.26,-192C406.911,-192 415.691,-192 424.434,-192"/>
<polygon fill="black" stroke="black" points="424.67,-195.5 434.67,-192 424.67,-188.5 424.67,-195.5"/>
</g>
<!-- FX_Calibration -->
<g id="node3" class="node"><title>FX_Calibration</title>
<polygon fill="none" stroke="blue" points="749.065,-41.5 749.065,-156.5 972.065,-156.5 972.065,-41.5 749.065,-41.5"/>
<text text-anchor="middle" x="801.065" y="-95.3" font-family="Times New Roman,serif" font-size="14.00">FX Sorter Tool</text>
<polyline fill="none" stroke="blue" points="853.065,-41.5 853.065,-156.5 "/>
<text text-anchor="middle" x="912.565" y="-141.3" font-family="Times New Roman,serif" font-size="14.00">B+H_Standard</text>
<polyline fill="none" stroke="blue" points="853.065,-133.5 972.065,-133.5 "/>
<text text-anchor="middle" x="912.565" y="-118.3" font-family="Times New Roman,serif" font-size="14.00">G</text>
<polyline fill="none" stroke="blue" points="853.065,-110.5 972.065,-110.5 "/>
<text text-anchor="middle" x="912.565" y="-95.3" font-family="Times New Roman,serif" font-size="14.00">Market Consistent</text>
<polyline fill="none" stroke="blue" points="853.065,-87.5 972.065,-87.5 "/>
<text text-anchor="middle" x="912.565" y="-72.3" font-family="Times New Roman,serif" font-size="14.00">#Economy#</text>
<polyline fill="none" stroke="blue" points="853.065,-64.5 972.065,-64.5 "/>
<text text-anchor="middle" x="912.565" y="-49.3" font-family="Times New Roman,serif" font-size="14.00">#SubModel#</text>
</g>
<!-- OutputFXModel -->
<g id="node6" class="node"><title>OutputFXModel</title>
<polygon fill="none" stroke="green" points="1009.07,-41.5 1009.07,-156.5 1196.07,-156.5 1196.07,-41.5 1009.07,-41.5"/>
<text text-anchor="middle" x="1043.07" y="-95.3" font-family="Times New Roman,serif" font-size="14.00">Econ.FX</text>
<polyline fill="none" stroke="green" points="1077.07,-41.5 1077.07,-156.5 "/>
<text text-anchor="middle" x="1136.57" y="-141.3" font-family="Times New Roman,serif" font-size="14.00">B+H_Standard</text>
<polyline fill="none" stroke="green" points="1077.07,-133.5 1196.07,-133.5 "/>
<text text-anchor="middle" x="1136.57" y="-118.3" font-family="Times New Roman,serif" font-size="14.00">G</text>
<polyline fill="none" stroke="green" points="1077.07,-110.5 1196.07,-110.5 "/>
<text text-anchor="middle" x="1136.57" y="-95.3" font-family="Times New Roman,serif" font-size="14.00">Market Consistent</text>
<polyline fill="none" stroke="green" points="1077.07,-87.5 1196.07,-87.5 "/>
<text text-anchor="middle" x="1136.57" y="-72.3" font-family="Times New Roman,serif" font-size="14.00">#Economy#</text>
<polyline fill="none" stroke="green" points="1077.07,-64.5 1196.07,-64.5 "/>
<text text-anchor="middle" x="1136.57" y="-49.3" font-family="Times New Roman,serif" font-size="14.00">#SubModel#</text>
</g>
<!-- FX_Calibration&#45;&gt;OutputFXModel -->
<g id="edge5" class="edge"><title>FX_Calibration&#45;&gt;OutputFXModel</title>
<path fill="none" stroke="black" d="M972.082,-99C980.924,-99 989.836,-99 998.623,-99"/>
<polygon fill="black" stroke="black" points="998.869,-102.5 1008.87,-99 998.869,-95.5001 998.869,-102.5"/>
</g>
<!-- FX_Data&#45;&gt;FX_Calibration -->
<g id="edge3" class="edge"><title>FX_Data&#45;&gt;FX_Calibration</title>
<path fill="none" stroke="black" stroke-dasharray="1,5" d="M657.241,-159.212C683.69,-151.34 712.074,-142.893 738.969,-134.89"/>
<polygon fill="black" stroke="black" points="740.217,-138.17 748.803,-131.963 738.221,-131.461 740.217,-138.17"/>
</g>
<!-- Assumptions -->
<g id="node5" class="node"><title>Assumptions</title>
<polygon fill="none" stroke="purple" points="455.565,-0.5 455.565,-115.5 636.565,-115.5 636.565,-0.5 455.565,-0.5"/>
<text text-anchor="middle" x="489.565" y="-54.3" font-family="Times New Roman,serif" font-size="14.00">Econ.FX</text>
<polyline fill="none" stroke="purple" points="523.565,-0.5 523.565,-115.5 "/>
<text text-anchor="middle" x="580.065" y="-100.3" font-family="Times New Roman,serif" font-size="14.00">B+H_Standard</text>
<polyline fill="none" stroke="purple" points="523.565,-92.5 636.565,-92.5 "/>
<text text-anchor="middle" x="580.065" y="-77.3" font-family="Times New Roman,serif" font-size="14.00">G</text>
<polyline fill="none" stroke="purple" points="523.565,-69.5 636.565,-69.5 "/>
<text text-anchor="middle" x="580.065" y="-54.3" font-family="Times New Roman,serif" font-size="14.00">Real World</text>
<polyline fill="none" stroke="purple" points="523.565,-46.5 636.565,-46.5 "/>
<text text-anchor="middle" x="580.065" y="-31.3" font-family="Times New Roman,serif" font-size="14.00">ALL</text>
<polyline fill="none" stroke="purple" points="523.565,-23.5 636.565,-23.5 "/>
<text text-anchor="middle" x="580.065" y="-8.3" font-family="Times New Roman,serif" font-size="14.00">FEA_VolTargets</text>
</g>
<!-- Assumptions&#45;&gt;FX_Calibration -->
<g id="edge4" class="edge"><title>Assumptions&#45;&gt;FX_Calibration</title>
<path fill="none" stroke="black" d="M636.615,-69.749C668.461,-73.9271 704.858,-78.7024 738.879,-83.1659"/>
<polygon fill="black" stroke="black" points="738.507,-86.6471 748.877,-84.4778 739.418,-79.7066 738.507,-86.6471"/>
<text text-anchor="middle" x="703.065" y="-84.8" font-family="Times New Roman,serif" font-size="14.00">&#39;Volatility&#39;</text>
</g>
</g>
</svg>
